<svg width="32" height="32" viewBox="0 0 32 32" fill="none" xmlns="http://www.w3.org/2000/svg">
<path d="M0 3.36842C0 2.47506 0.337142 1.61829 0.937258 0.986588C1.53737 0.354886 2.35131 0 3.2 0H28.8C29.6487 0 30.4626 0.354886 31.0627 0.986588C31.6629 1.61829 32 2.47506 32 3.36842V21.8947C32 22.7881 31.6629 23.6449 31.0627 24.2766C30.4626 24.9083 29.6487 25.2632 28.8 25.2632H17.6V28.6316H22.4C22.8243 28.6316 23.2313 28.809 23.5314 29.1249C23.8314 29.4407 24 29.8691 24 30.3158C24 30.7625 23.8314 31.1909 23.5314 31.5067C23.2313 31.8226 22.8243 32 22.4 32H9.6C9.17565 32 8.76869 31.8226 8.46863 31.5067C8.16857 31.1909 8 30.7625 8 30.3158C8 29.8691 8.16857 29.4407 8.46863 29.1249C8.76869 28.809 9.17565 28.6316 9.6 28.6316H14.4V25.2632H3.2C2.35131 25.2632 1.53737 24.9083 0.937258 24.2766C0.337142 23.6449 0 22.7881 0 21.8947V3.36842ZM28.8 21.8947V3.36842H3.2V21.8947H28.8Z" fill="white"/>
</svg>
