<svg width="32" height="32" viewBox="0 0 32 32" fill="none" xmlns="http://www.w3.org/2000/svg">
<path d="M30.7055 1.29309C30.2957 0.883137 29.8091 0.557938 29.2735 0.336067C28.738 0.114196 28.1639 0 27.5842 0C27.0045 0 26.4305 0.114196 25.895 0.336067C25.3594 0.557938 24.8728 0.883137 24.4629 1.29309C24.4492 1.30688 24.4354 1.32068 24.4229 1.33585L16.8494 9.77423L15.5832 8.50392C15.2758 8.19636 14.9108 7.95237 14.5091 7.78591C14.1073 7.61944 13.6767 7.53376 13.2419 7.53376C12.807 7.53376 12.3764 7.61944 11.9747 7.78591C11.573 7.95237 11.208 8.19636 10.9006 8.50392L0.322928 19.0829C0.116153 19.2899 0 19.5704 0 19.8629C0 20.1554 0.116153 20.436 0.322928 20.6429L11.3571 31.6771C11.564 31.8838 11.8446 32 12.1371 32C12.4296 32 12.7101 31.8838 12.9171 31.6771L23.4947 21.105C23.8023 20.7975 24.0463 20.4325 24.2127 20.0308C24.3792 19.6291 24.4649 19.1985 24.4649 18.7636C24.4649 18.3288 24.3792 17.8982 24.2127 17.4965C24.0463 17.0947 23.8023 16.7297 23.4947 16.4223L22.2244 15.1534L30.6628 7.57981C30.678 7.5671 30.6923 7.55327 30.7055 7.53843C31.1159 7.12852 31.4414 6.64175 31.6636 6.10594C31.8857 5.57012 32 4.99579 32 4.41576C32 3.83574 31.8857 3.2614 31.6636 2.72559C31.4414 2.18978 31.1159 1.703 30.7055 1.29309ZM12.135 29.3378L9.83439 27.0358L12.9157 23.9531C13.1139 23.7445 13.2227 23.4668 13.2191 23.179C13.2154 22.8913 13.0994 22.6164 12.896 22.4129C12.6925 22.2094 12.4176 22.0935 12.1299 22.0898C11.8421 22.0861 11.5643 22.195 11.3557 22.3932L8.27305 25.4745L6.52413 23.7256L9.60543 20.6429C9.80362 20.4343 9.91249 20.1565 9.9088 19.8688C9.90512 19.581 9.78918 19.3061 9.58571 19.1027C9.38224 18.8992 9.10733 18.7833 8.8196 18.7796C8.53187 18.7759 8.25409 18.8847 8.04547 19.0829L4.9628 22.1642L2.66079 19.8636L8.82476 13.6996L18.299 23.1739L12.135 29.3378ZM29.1635 5.95503L20.7499 13.5065C20.5269 13.7069 20.347 13.9506 20.2212 14.2227C20.0955 14.4949 20.0265 14.7898 20.0185 15.0895C20.0105 15.3892 20.0636 15.6874 20.1747 15.9659C20.2858 16.2443 20.4524 16.4973 20.6644 16.7092L21.9334 17.9795C22.1401 18.1864 22.2563 18.467 22.2563 18.7595C22.2563 19.052 22.1401 19.3326 21.9334 19.5395L19.8645 21.6084L10.3861 12.1397L12.455 10.0708C12.6619 9.864 12.9425 9.74785 13.235 9.74785C13.5275 9.74785 13.808 9.864 14.015 10.0708L15.2853 11.3397C15.4972 11.5518 15.7501 11.7184 16.0286 11.8294C16.3071 11.9405 16.6053 11.9936 16.905 11.9856C17.2047 11.9776 17.4996 11.9087 17.7718 11.7829C18.0439 11.6571 18.2876 11.4772 18.4879 11.2542L26.0395 2.84063C26.4567 2.44424 27.0123 2.22652 27.5877 2.23389C28.1632 2.24126 28.713 2.47313 29.1199 2.88007C29.5269 3.28702 29.7587 3.83683 29.7661 4.41229C29.7735 4.98775 29.5558 5.54332 29.1594 5.96055L29.1635 5.95503Z" fill="white"/>
</svg>
