<svg width="48" height="44" viewBox="0 0 48 44" fill="none" xmlns="http://www.w3.org/2000/svg">
<path d="M10.1053 44C8.21053 44 6.33684 43.5516 4.48421 42.6547C2.63158 41.7578 1.13684 40.5756 0 39.108C1.09474 39.108 2.21053 38.6897 3.34737 37.8532C4.48421 37.0167 5.05263 35.8043 5.05263 34.216C5.05263 32.1777 5.78947 30.4451 7.26316 29.0182C8.73684 27.5914 10.5263 26.878 12.6316 26.878C14.7368 26.878 16.5263 27.5914 18 29.0182C19.4737 30.4451 20.2105 32.1777 20.2105 34.216C20.2105 36.9066 19.2211 39.2099 17.2421 41.1259C15.2632 43.042 12.8842 44 10.1053 44ZM24.6316 29.324L17.6842 22.5975L40.2947 0.705765C40.7579 0.257331 41.3373 0.0225152 42.0328 0.00131648C42.7284 -0.0198822 43.328 0.214934 43.8316 0.705765L47.2421 4.00787C47.7474 4.49707 48 5.0678 48 5.72007C48 6.37234 47.7474 6.94307 47.2421 7.43227L24.6316 29.324Z" fill="#6C63FF"/>
</svg>
