<svg width="148" height="131" viewBox="0 0 148 131" fill="none" xmlns="http://www.w3.org/2000/svg">
<path d="M142.013 5.29359C140.117 3.61534 137.867 2.28406 135.39 1.37577C132.913 0.467492 130.258 0 127.577 0C124.896 0 122.241 0.467492 119.764 1.37577C117.287 2.28406 115.037 3.61534 113.141 5.29359C113.077 5.35005 113.014 5.40652 112.956 5.46863L77.9283 40.0133L72.0723 34.8129C70.6505 33.5538 68.9624 32.555 67.1044 31.8736C65.2464 31.1921 63.2549 30.8413 61.2437 30.8413C59.2325 30.8413 57.241 31.1921 55.383 31.8736C53.525 32.555 51.8369 33.5538 50.4151 34.8129L1.49354 78.1208C0.537209 78.9678 0 80.1163 0 81.3138C0 82.5113 0.537209 83.6598 1.49354 84.5069L52.5266 129.678C53.4836 130.524 54.7811 131 56.134 131C57.4869 131 58.7844 130.524 59.7414 129.678L108.663 86.3984C110.085 85.1399 111.214 83.6457 111.984 82.0012C112.754 80.3566 113.15 78.5938 113.15 76.8136C113.15 75.0335 112.754 73.2707 111.984 71.6261C111.214 69.9815 110.085 68.4873 108.663 67.2289L102.788 62.0342L141.815 31.0299C141.886 30.9778 141.952 30.9212 142.013 30.8605C143.911 29.1824 145.417 27.1896 146.444 24.9962C147.471 22.8027 148 20.4515 148 18.077C148 15.7026 147.471 13.3514 146.444 11.1579C145.417 8.96441 143.911 6.97166 142.013 5.29359ZM56.1244 120.102L45.484 110.678L59.735 98.0582C60.6517 97.2042 61.1552 96.067 61.1381 94.8891C61.1211 93.7112 60.5849 92.5858 59.6438 91.7529C58.7028 90.9199 57.4313 90.4453 56.1006 90.4302C54.7698 90.4151 53.4851 90.8608 52.5202 91.6721L38.2629 104.286L30.1741 97.1265L44.4251 84.5069C45.3418 83.6528 45.8452 82.5157 45.8282 81.3378C45.8112 80.1599 45.275 79.0345 44.3339 78.2015C43.3928 77.3686 42.1214 76.8939 40.7906 76.8789C39.4599 76.8638 38.1751 77.3094 37.2103 78.1208L22.9529 90.7348L12.3062 81.3166L40.8145 56.0829L84.6328 94.868L56.1244 120.102ZM134.881 24.3784L95.9685 55.2924C94.9369 56.1125 94.1049 57.1101 93.5232 58.2242C92.9416 59.3383 92.6226 60.5457 92.5855 61.7726C92.5485 62.9995 92.7943 64.2202 93.308 65.3602C93.8216 66.5002 94.5923 67.5357 95.573 68.4033L101.442 73.6037C102.398 74.4507 102.935 75.5992 102.935 76.7967C102.935 77.9942 102.398 79.1427 101.442 79.9897L91.8731 88.4593L48.0357 49.6968L57.6044 41.2272C58.5613 40.3808 59.8589 39.9053 61.2118 39.9053C62.5647 39.9053 63.8622 40.3808 64.8192 41.2272L70.6944 46.4219C71.6746 47.29 72.8444 47.9721 74.1324 48.4268C75.4204 48.8814 76.7995 49.099 78.1856 49.0662C79.5717 49.0335 80.9357 48.751 82.1945 48.2362C83.4532 47.7214 84.5802 46.985 85.5067 46.0718L120.432 11.6288C122.362 10.0061 124.932 9.11481 127.593 9.14498C130.255 9.17514 132.798 10.1244 134.68 11.7903C136.562 13.4562 137.634 15.707 137.668 18.0628C137.702 20.4186 136.695 22.693 134.862 24.401L134.881 24.3784Z" fill="#6C63FF"/>
</svg>
