<svg width="162" height="104" viewBox="0 0 162 104" fill="none" xmlns="http://www.w3.org/2000/svg">
<path d="M7 45C3.13401 45 0 48.134 0 52C0 55.866 3.13401 59 7 59V45ZM159.95 56.9497C162.683 54.2161 162.683 49.7839 159.95 47.0503L115.402 2.50253C112.668 -0.231144 108.236 -0.231144 105.503 2.50253C102.769 5.23619 102.769 9.66835 105.503 12.402L145.101 52L105.503 91.598C102.769 94.3316 102.769 98.7638 105.503 101.497C108.236 104.231 112.668 104.231 115.402 101.497L159.95 56.9497ZM7 59H155V45H7V59Z" fill="#6C63FF"/>
</svg>
