<svg width="148" height="131" viewBox="0 0 148 131" fill="none" xmlns="http://www.w3.org/2000/svg">
<path d="M135.667 131H12.3333C9.06333 130.997 5.9282 129.935 3.61596 128.046C1.30372 126.156 0.00326511 123.595 0 120.923V50.3846C0.00326511 47.7129 1.30372 45.1513 3.61596 43.2621C5.9282 41.3729 9.06333 40.3104 12.3333 40.3077H135.667C138.937 40.3104 142.072 41.3729 144.384 43.2621C146.696 45.1513 147.997 47.7129 148 50.3846V120.923C147.997 123.595 146.696 126.156 144.384 128.046C142.072 129.935 138.937 130.997 135.667 131ZM12.3333 50.3846V120.923H135.667V50.3846H12.3333ZM12.3333 20.1538H135.667V30.2308H12.3333V20.1538ZM24.6667 0H123.333V10.0769H24.6667V0Z" fill="#6C63FF"/>
</svg>
