<svg width="32" height="32" viewBox="0 0 32 32" fill="none" xmlns="http://www.w3.org/2000/svg">
<path d="M29.3333 32H2.66667C1.95964 31.9993 1.28177 31.7398 0.781829 31.2783C0.281885 30.8168 0.000705969 30.1911 0 29.5385V12.3077C0.000705969 11.6551 0.281885 11.0293 0.781829 10.5678C1.28177 10.1064 1.95964 9.84681 2.66667 9.84615H29.3333C30.0404 9.84681 30.7182 10.1064 31.2182 10.5678C31.7181 11.0293 31.9993 11.6551 32 12.3077V29.5385C31.9993 30.1911 31.7181 30.8168 31.2182 31.2783C30.7182 31.7398 30.0404 31.9993 29.3333 32ZM2.66667 12.3077V29.5385H29.3333V12.3077H2.66667ZM2.66667 4.92308H29.3333V7.38462H2.66667V4.92308ZM5.33333 0H26.6667V2.46154H5.33333V0Z" fill="white"/>
</svg>
