<svg width="447" height="624" viewBox="0 0 447 624" fill="none" xmlns="http://www.w3.org/2000/svg">
<g opacity="0.34">
<rect opacity="0.5" x="104.054" y="183.059" width="107.452" height="119.275" transform="rotate(-28.8667 104.054 183.059)" fill="#6778D6" fill-opacity="0.39"/>
<rect opacity="0.5" x="196.345" y="132.182" width="214.905" height="64.7788" transform="rotate(-28.8667 196.345 132.182)" fill="#6778D6" fill-opacity="0.39"/>
<rect opacity="0.5" x="183.912" y="302.239" width="214.905" height="18.5082" transform="rotate(-28.8667 183.912 302.239)" fill="#6778D6" fill-opacity="0.39"/>
<rect opacity="0.5" x="340.063" y="362.923" width="77.4896" height="81.2306" transform="rotate(-28.8667 340.063 362.923)" fill="#6778D6" fill-opacity="0.39"/>
<rect opacity="0.5" x="318.571" y="163.428" width="156.012" height="32.9035" transform="rotate(-28.8667 318.571 163.428)" fill="#6778D6" fill-opacity="0.39"/>
<rect opacity="0.5" x="367.907" y="499.036" width="77.4896" height="32.9035" transform="rotate(-28.8667 367.907 499.036)" fill="#6778D6" fill-opacity="0.39"/>
<rect opacity="0.5" x="201.421" y="590.815" width="77.4896" height="32.9035" transform="rotate(-28.8667 201.421 590.815)" fill="#6778D6" fill-opacity="0.39"/>
<rect opacity="0.5" x="390.877" y="326.692" width="156.012" height="66.8353" transform="rotate(-28.8667 390.877 326.692)" fill="#6778D6" fill-opacity="0.39"/>
<rect opacity="0.5" x="133.909" y="468.351" width="155.264" height="67.1577" transform="rotate(-118.867 133.909 468.351)" fill="#6778D6" fill-opacity="0.39"/>
<rect opacity="0.5" x="315.91" y="456.079" width="155.264" height="24.7967" transform="rotate(-118.867 315.91 456.079)" fill="#6778D6" fill-opacity="0.39"/>
<rect opacity="0.5" x="37.2305" y="307.957" width="77.1176" height="82.6556" transform="rotate(-118.867 37.2305 307.957)" fill="#6778D6" fill-opacity="0.39"/>
<rect opacity="0.5" x="237.054" y="544.167" width="77.1176" height="82.6556" transform="rotate(-118.867 237.054 544.167)" fill="#6778D6" fill-opacity="0.39"/>
<rect opacity="0.5" x="243.932" y="325.51" width="157.046" height="16.4518" transform="rotate(-28.8667 243.932 325.51)" fill="#6778D6" fill-opacity="0.39"/>
<rect opacity="0.5" x="417.618" y="180.448" width="103.32" height="102.824" transform="rotate(-28.8667 417.618 180.448)" fill="#6778D6" fill-opacity="0.39"/>
</g>
</svg>
