<svg width="645" height="688" viewBox="0 0 645 688" fill="none" xmlns="http://www.w3.org/2000/svg">
<g opacity="0.34">
<rect opacity="0.5" x="276.675" y="-127.947" width="144.669" height="162.532" transform="rotate(51.2814 276.675 -127.947)" fill="#6778D6" fill-opacity="0.39"/>
<rect opacity="0.5" x="365.426" y="-17.2432" width="289.338" height="88.2719" transform="rotate(51.2814 365.426 -17.2432)" fill="#6778D6" fill-opacity="0.39"/>
<rect opacity="0.5" x="596.139" y="244.371" width="77.1277" height="278.301" transform="rotate(51.2814 596.139 244.371)" fill="#6778D6" fill-opacity="0.39"/>
<rect opacity="0.5" x="135.161" y="6.89722" width="289.338" height="25.2205" transform="rotate(51.2814 135.161 6.89722)" fill="#6778D6" fill-opacity="0.39"/>
<rect opacity="0.5" x="88.9893" y="229.328" width="104.329" height="110.69" transform="rotate(51.2814 88.9893 229.328)" fill="#6778D6" fill-opacity="0.39"/>
<rect opacity="0.5" x="351.034" y="152.97" width="210.048" height="44.8365" transform="rotate(51.2814 351.034 152.97)" fill="#6778D6" fill-opacity="0.39"/>
<rect opacity="0.5" x="148.848" y="288.313" width="210.048" height="91.0742" transform="rotate(51.2814 148.848 288.313)" fill="#6778D6" fill-opacity="0.39"/>
<rect opacity="0.5" x="59.0596" y="-64.6294" width="210.048" height="91.0742" transform="rotate(51.2814 59.0596 -64.6294)" fill="#6778D6" fill-opacity="0.39"/>
<rect opacity="0.5" x="-98.2588" y="-19.9219" width="211.572" height="90.4182" transform="rotate(-38.7186 -98.2588 -19.9219)" fill="#6778D6" fill-opacity="0.39"/>
<rect opacity="0.5" x="-41.0352" y="219.463" width="211.572" height="33.3852" transform="rotate(-38.7186 -41.0352 219.463)" fill="#6778D6" fill-opacity="0.39"/>
<rect opacity="0.5" x="-101.009" y="341.713" width="211.572" height="33.3852" transform="rotate(-38.7186 -101.009 341.713)" fill="#6778D6" fill-opacity="0.39"/>
<rect opacity="0.5" x="117.481" y="92.3838" width="211.439" height="22.4183" transform="rotate(51.2814 117.481 92.3838)" fill="#6778D6" fill-opacity="0.39"/>
<rect opacity="0.5" x="350.477" y="288.917" width="139.105" height="140.114" transform="rotate(51.2814 350.477 288.917)" fill="#6778D6" fill-opacity="0.39"/>
<rect opacity="0.5" x="13.2227" y="423.785" width="105.72" height="44.8365" transform="rotate(51.2814 13.2227 423.785)" fill="#6778D6" fill-opacity="0.39"/>
</g>
</svg>
