<svg width="1108" height="815" viewBox="0 0 1108 815" fill="none" xmlns="http://www.w3.org/2000/svg">
<g opacity="0.34">
<rect opacity="0.5" x="26.8926" y="360.463" width="211.585" height="241.54" transform="rotate(-28.8667 26.8926 360.463)" fill="#6778D6" fill-opacity="0.39"/>
<rect opacity="0.5" x="208.623" y="260.28" width="423.17" height="131.181" transform="rotate(-28.8667 208.623 260.28)" fill="#6778D6" fill-opacity="0.39"/>
<rect opacity="0.5" x="188.003" y="602.145" width="423.17" height="37.4804" transform="rotate(-28.8667 188.003 602.145)" fill="#6778D6" fill-opacity="0.39"/>
<rect opacity="0.5" x="498.954" y="727.937" width="152.585" height="164.497" transform="rotate(-28.8667 498.954 727.937)" fill="#6778D6" fill-opacity="0.39"/>
<rect opacity="0.5" x="451.634" y="326.04" width="307.205" height="66.6317" transform="rotate(-28.8667 451.634 326.04)" fill="#6778D6" fill-opacity="0.39"/>
<rect opacity="0.5" x="598.816" y="656.241" width="307.205" height="135.346" transform="rotate(-28.8667 598.816 656.241)" fill="#6778D6" fill-opacity="0.39"/>
<rect opacity="0.5" x="92.8203" y="935.182" width="314.418" height="132.241" transform="rotate(-118.867 92.8203 935.182)" fill="#6778D6" fill-opacity="0.39"/>
<rect opacity="0.5" x="453.282" y="914.796" width="314.418" height="48.8273" transform="rotate(-118.867 453.282 914.796)" fill="#6778D6" fill-opacity="0.39"/>
<rect opacity="0.5" x="-102.606" y="610.178" width="156.168" height="162.758" transform="rotate(-118.867 -102.606 610.178)" fill="#6778D6" fill-opacity="0.39"/>
<rect opacity="0.5" x="307.521" y="650.386" width="309.239" height="33.3159" transform="rotate(-28.8667 307.521 650.386)" fill="#6778D6" fill-opacity="0.39"/>
<rect opacity="0.5" x="648.362" y="362.628" width="203.447" height="208.224" transform="rotate(-28.8667 648.362 362.628)" fill="#6778D6" fill-opacity="0.39"/>
<rect opacity="0.5" x="762.258" y="889.506" width="154.62" height="66.6317" transform="rotate(-28.8667 762.258 889.506)" fill="#6778D6" fill-opacity="0.39"/>
</g>
</svg>
