<svg width="743" height="823" viewBox="0 0 743 823" fill="none" xmlns="http://www.w3.org/2000/svg">
<g opacity="0.34">
<rect opacity="0.5" x="374.676" y="7.05273" width="144.669" height="162.532" transform="rotate(51.2814 374.676 7.05273)" fill="#6778D6" fill-opacity="0.39"/>
<rect opacity="0.5" x="463.428" y="117.757" width="289.338" height="88.2719" transform="rotate(51.2814 463.428 117.757)" fill="#6778D6" fill-opacity="0.39"/>
<rect opacity="0.5" x="694.139" y="379.371" width="77.1277" height="278.301" transform="rotate(51.2814 694.139 379.371)" fill="#6778D6" fill-opacity="0.39"/>
<rect opacity="0.5" x="233.162" y="141.897" width="289.338" height="25.2205" transform="rotate(51.2814 233.162 141.897)" fill="#6778D6" fill-opacity="0.39"/>
<rect opacity="0.5" x="186.992" y="364.33" width="104.329" height="110.69" transform="rotate(51.2814 186.992 364.33)" fill="#6778D6" fill-opacity="0.39"/>
<rect opacity="0.5" x="449.035" y="287.97" width="210.048" height="44.8365" transform="rotate(51.2814 449.035 287.97)" fill="#6778D6" fill-opacity="0.39"/>
<rect opacity="0.5" x="11.1641" y="433.973" width="104.329" height="44.8365" transform="rotate(51.2814 11.1641 433.973)" fill="#6778D6" fill-opacity="0.39"/>
<rect opacity="0.5" x="246.85" y="423.315" width="210.048" height="91.0742" transform="rotate(51.2814 246.85 423.315)" fill="#6778D6" fill-opacity="0.39"/>
<rect opacity="0.5" x="157.061" y="70.3706" width="210.048" height="91.0742" transform="rotate(51.2814 157.061 70.3706)" fill="#6778D6" fill-opacity="0.39"/>
<rect opacity="0.5" x="-0.255859" y="115.08" width="211.572" height="90.4182" transform="rotate(-38.7186 -0.255859 115.08)" fill="#6778D6" fill-opacity="0.39"/>
<rect opacity="0.5" x="56.9668" y="354.464" width="211.572" height="33.3852" transform="rotate(-38.7186 56.9668 354.464)" fill="#6778D6" fill-opacity="0.39"/>
<rect opacity="0.5" x="-3.00586" y="476.715" width="211.572" height="33.3852" transform="rotate(-38.7186 -3.00586 476.715)" fill="#6778D6" fill-opacity="0.39"/>
<rect opacity="0.5" x="192.627" y="-52.0303" width="105.086" height="111.284" transform="rotate(-38.7186 192.627 -52.0303)" fill="#6778D6" fill-opacity="0.39"/>
<rect opacity="0.5" x="-78.5449" y="270.551" width="105.086" height="111.284" transform="rotate(-38.7186 -78.5449 270.551)" fill="#6778D6" fill-opacity="0.39"/>
<rect opacity="0.5" x="215.484" y="227.385" width="211.439" height="22.4183" transform="rotate(51.2814 215.484 227.385)" fill="#6778D6" fill-opacity="0.39"/>
<rect opacity="0.5" x="448.477" y="423.917" width="139.105" height="140.114" transform="rotate(51.2814 448.477 423.917)" fill="#6778D6" fill-opacity="0.39"/>
<rect opacity="0.5" x="111.225" y="558.787" width="105.72" height="44.8365" transform="rotate(51.2814 111.225 558.787)" fill="#6778D6" fill-opacity="0.39"/>
</g>
</svg>
