<svg width="732" height="715" viewBox="0 0 732 715" fill="none" xmlns="http://www.w3.org/2000/svg">
<g opacity="0.34">
<rect opacity="0.5" x="363.719" y="-100.947" width="144.669" height="162.532" transform="rotate(51.2814 363.719 -100.947)" fill="#6778D6" fill-opacity="0.39"/>
<rect opacity="0.5" x="452.471" y="9.75684" width="289.338" height="88.2719" transform="rotate(51.2814 452.471 9.75684)" fill="#6778D6" fill-opacity="0.39"/>
<rect opacity="0.5" x="683.182" y="271.371" width="77.1277" height="278.301" transform="rotate(51.2814 683.182 271.371)" fill="#6778D6" fill-opacity="0.39"/>
<rect opacity="0.5" x="222.205" y="33.8975" width="289.338" height="25.2205" transform="rotate(51.2814 222.205 33.8975)" fill="#6778D6" fill-opacity="0.39"/>
<rect opacity="0.5" x="175.988" y="256.367" width="104.329" height="110.69" transform="rotate(51.2814 175.988 256.367)" fill="#6778D6" fill-opacity="0.39"/>
<rect opacity="0.5" x="438.078" y="179.97" width="210.048" height="44.8365" transform="rotate(51.2814 438.078 179.97)" fill="#6778D6" fill-opacity="0.39"/>
<rect opacity="0.5" x="0.162109" y="326.01" width="104.329" height="44.8365" transform="rotate(51.2814 0.162109 326.01)" fill="#6778D6" fill-opacity="0.39"/>
<rect opacity="0.5" x="235.848" y="315.352" width="210.048" height="91.0742" transform="rotate(51.2814 235.848 315.352)" fill="#6778D6" fill-opacity="0.39"/>
<rect opacity="0.5" x="146.104" y="-37.6294" width="210.048" height="91.0742" transform="rotate(51.2814 146.104 -37.6294)" fill="#6778D6" fill-opacity="0.39"/>
<rect opacity="0.5" x="-11.2598" y="7.1167" width="211.572" height="90.4182" transform="rotate(-38.7186 -11.2598 7.1167)" fill="#6778D6" fill-opacity="0.39"/>
<rect opacity="0.5" x="45.9648" y="246.501" width="211.572" height="33.3852" transform="rotate(-38.7186 45.9648 246.501)" fill="#6778D6" fill-opacity="0.39"/>
<rect opacity="0.5" x="-14.0098" y="368.751" width="211.572" height="33.3852" transform="rotate(-38.7186 -14.0098 368.751)" fill="#6778D6" fill-opacity="0.39"/>
<rect opacity="0.5" x="-89.5469" y="162.588" width="105.086" height="111.284" transform="rotate(-38.7186 -89.5469 162.588)" fill="#6778D6" fill-opacity="0.39"/>
<rect opacity="0.5" x="204.48" y="119.422" width="211.439" height="22.4183" transform="rotate(51.2814 204.48 119.422)" fill="#6778D6" fill-opacity="0.39"/>
<rect opacity="0.5" x="437.52" y="315.917" width="139.105" height="140.114" transform="rotate(51.2814 437.52 315.917)" fill="#6778D6" fill-opacity="0.39"/>
<rect opacity="0.5" x="100.223" y="450.823" width="105.72" height="44.8365" transform="rotate(51.2814 100.223 450.823)" fill="#6778D6" fill-opacity="0.39"/>
</g>
</svg>
