<svg width="500" height="624" viewBox="0 0 500 624" fill="none" xmlns="http://www.w3.org/2000/svg">
<g opacity="0.34">
<rect opacity="0.5" x="-43.9463" y="183.059" width="107.452" height="119.275" transform="rotate(-28.8667 -43.9463 183.059)" fill="#6778D6" fill-opacity="0.39"/>
<rect opacity="0.5" x="48.3447" y="132.182" width="214.905" height="64.7788" transform="rotate(-28.8667 48.3447 132.182)" fill="#6778D6" fill-opacity="0.39"/>
<rect opacity="0.5" x="35.9121" y="302.239" width="214.905" height="18.5082" transform="rotate(-28.8667 35.9121 302.239)" fill="#6778D6" fill-opacity="0.39"/>
<rect opacity="0.5" x="192.063" y="362.923" width="77.4896" height="81.2306" transform="rotate(-28.8667 192.063 362.923)" fill="#6778D6" fill-opacity="0.39"/>
<rect opacity="0.5" x="170.571" y="163.428" width="156.012" height="32.9035" transform="rotate(-28.8667 170.571 163.428)" fill="#6778D6" fill-opacity="0.39"/>
<rect opacity="0.5" x="219.907" y="499.036" width="77.4896" height="32.9035" transform="rotate(-28.8667 219.907 499.036)" fill="#6778D6" fill-opacity="0.39"/>
<rect opacity="0.5" x="53.4209" y="590.815" width="77.4896" height="32.9035" transform="rotate(-28.8667 53.4209 590.815)" fill="#6778D6" fill-opacity="0.39"/>
<rect opacity="0.5" x="242.877" y="326.692" width="156.012" height="66.8353" transform="rotate(-28.8667 242.877 326.692)" fill="#6778D6" fill-opacity="0.39"/>
<rect opacity="0.5" x="-14.0908" y="468.351" width="155.264" height="67.1577" transform="rotate(-118.867 -14.0908 468.351)" fill="#6778D6" fill-opacity="0.39"/>
<rect opacity="0.5" x="167.91" y="456.079" width="155.264" height="24.7967" transform="rotate(-118.867 167.91 456.079)" fill="#6778D6" fill-opacity="0.39"/>
<rect opacity="0.5" x="89.0537" y="544.167" width="77.1176" height="82.6556" transform="rotate(-118.867 89.0537 544.167)" fill="#6778D6" fill-opacity="0.39"/>
<rect opacity="0.5" x="95.9316" y="325.51" width="157.046" height="16.4518" transform="rotate(-28.8667 95.9316 325.51)" fill="#6778D6" fill-opacity="0.39"/>
<rect opacity="0.5" x="269.618" y="180.448" width="103.32" height="102.824" transform="rotate(-28.8667 269.618 180.448)" fill="#6778D6" fill-opacity="0.39"/>
<rect opacity="0.5" x="323.961" y="441.674" width="78.5228" height="32.9035" transform="rotate(-28.8667 323.961 441.674)" fill="#6778D6" fill-opacity="0.39"/>
</g>
</svg>
