<svg width="620" height="780" viewBox="0 0 620 780" fill="none" xmlns="http://www.w3.org/2000/svg">
<g opacity="0.34">
<rect opacity="0.5" x="251.729" y="-35.9473" width="144.669" height="162.532" transform="rotate(51.2814 251.729 -35.9473)" fill="#6778D6" fill-opacity="0.39"/>
<rect opacity="0.5" x="340.48" y="74.7568" width="289.338" height="88.2719" transform="rotate(51.2814 340.48 74.7568)" fill="#6778D6" fill-opacity="0.39"/>
<rect opacity="0.5" x="571.191" y="336.371" width="77.1277" height="278.301" transform="rotate(51.2814 571.191 336.371)" fill="#6778D6" fill-opacity="0.39"/>
<rect opacity="0.5" x="110.215" y="98.8972" width="289.338" height="25.2205" transform="rotate(51.2814 110.215 98.8972)" fill="#6778D6" fill-opacity="0.39"/>
<rect opacity="0.5" x="63.957" y="321.385" width="104.329" height="110.69" transform="rotate(51.2814 63.957 321.385)" fill="#6778D6" fill-opacity="0.39"/>
<rect opacity="0.5" x="326.088" y="244.97" width="210.048" height="44.8365" transform="rotate(51.2814 326.088 244.97)" fill="#6778D6" fill-opacity="0.39"/>
<rect opacity="0.5" x="123.816" y="380.37" width="210.048" height="91.0742" transform="rotate(51.2814 123.816 380.37)" fill="#6778D6" fill-opacity="0.39"/>
<rect opacity="0.5" x="34.1133" y="27.3706" width="210.048" height="91.0742" transform="rotate(51.2814 34.1133 27.3706)" fill="#6778D6" fill-opacity="0.39"/>
<rect opacity="0.5" x="-123.289" y="72.1362" width="211.572" height="90.4182" transform="rotate(-38.7186 -123.289 72.1362)" fill="#6778D6" fill-opacity="0.39"/>
<rect opacity="0.5" x="-66.0645" y="311.522" width="211.572" height="33.3852" transform="rotate(-38.7186 -66.0645 311.522)" fill="#6778D6" fill-opacity="0.39"/>
<rect opacity="0.5" x="-126.041" y="433.77" width="211.572" height="33.3852" transform="rotate(-38.7186 -126.041 433.77)" fill="#6778D6" fill-opacity="0.39"/>
<rect opacity="0.5" x="92.4512" y="184.442" width="211.439" height="22.4183" transform="rotate(51.2814 92.4512 184.442)" fill="#6778D6" fill-opacity="0.39"/>
<rect opacity="0.5" x="325.529" y="380.917" width="139.105" height="140.114" transform="rotate(51.2814 325.529 380.917)" fill="#6778D6" fill-opacity="0.39"/>
<rect opacity="0.5" x="-11.8086" y="515.842" width="105.72" height="44.8365" transform="rotate(51.2814 -11.8086 515.842)" fill="#6778D6" fill-opacity="0.39"/>
</g>
</svg>
