<svg width="688" height="847" viewBox="0 0 688 847" fill="none" xmlns="http://www.w3.org/2000/svg">
<g opacity="0.34">
<rect opacity="0.5" x="565.695" y="135.053" width="144.669" height="162.532" transform="rotate(51.2814 565.695 135.053)" fill="#6778D6" fill-opacity="0.39"/>
<rect opacity="0.5" x="654.446" y="245.757" width="289.338" height="88.2719" transform="rotate(51.2814 654.446 245.757)" fill="#6778D6" fill-opacity="0.39"/>
<rect opacity="0.5" x="885.159" y="507.371" width="77.1277" height="278.301" transform="rotate(51.2814 885.159 507.371)" fill="#6778D6" fill-opacity="0.39"/>
<rect opacity="0.5" x="424.182" y="269.897" width="289.338" height="25.2205" transform="rotate(51.2814 424.182 269.897)" fill="#6778D6" fill-opacity="0.39"/>
<rect opacity="0.5" x="377.99" y="492.347" width="104.329" height="110.69" transform="rotate(51.2814 377.99 492.347)" fill="#6778D6" fill-opacity="0.39"/>
<rect opacity="0.5" x="640.055" y="415.97" width="210.048" height="44.8365" transform="rotate(51.2814 640.055 415.97)" fill="#6778D6" fill-opacity="0.39"/>
<rect opacity="0.5" x="202.163" y="561.99" width="104.329" height="44.8365" transform="rotate(51.2814 202.163 561.99)" fill="#6778D6" fill-opacity="0.39"/>
<rect opacity="0.5" x="42.0645" y="362.289" width="104.329" height="44.8365" transform="rotate(51.2814 42.0645 362.289)" fill="#6778D6" fill-opacity="0.39"/>
<rect opacity="0.5" x="437.849" y="551.332" width="210.048" height="91.0742" transform="rotate(51.2814 437.849 551.332)" fill="#6778D6" fill-opacity="0.39"/>
<rect opacity="0.5" x="348.08" y="198.371" width="210.048" height="91.0742" transform="rotate(51.2814 348.08 198.371)" fill="#6778D6" fill-opacity="0.39"/>
<rect opacity="0.5" x="190.742" y="243.097" width="211.572" height="90.4182" transform="rotate(-38.7186 190.742 243.097)" fill="#6778D6" fill-opacity="0.39"/>
<rect opacity="0.5" x="247.966" y="482.482" width="211.572" height="33.3852" transform="rotate(-38.7186 247.966 482.482)" fill="#6778D6" fill-opacity="0.39"/>
<rect opacity="0.5" x="187.992" y="604.732" width="211.572" height="33.3852" transform="rotate(-38.7186 187.992 604.732)" fill="#6778D6" fill-opacity="0.39"/>
<rect opacity="0.5" x="383.646" y="75.9697" width="105.086" height="111.284" transform="rotate(-38.7186 383.646 75.9697)" fill="#6778D6" fill-opacity="0.39"/>
<rect opacity="0.5" x="112.454" y="398.569" width="105.086" height="111.284" transform="rotate(-38.7186 112.454 398.569)" fill="#6778D6" fill-opacity="0.39"/>
<rect opacity="0.5" x="406.482" y="355.402" width="211.439" height="22.4183" transform="rotate(51.2814 406.482 355.402)" fill="#6778D6" fill-opacity="0.39"/>
<rect opacity="0.5" x="639.497" y="551.916" width="139.105" height="140.114" transform="rotate(51.2814 639.497 551.916)" fill="#6778D6" fill-opacity="0.39"/>
<rect opacity="0.5" x="302.224" y="686.804" width="105.72" height="44.8365" transform="rotate(51.2814 302.224 686.804)" fill="#6778D6" fill-opacity="0.39"/>
</g>
</svg>
