<svg width="148" height="131" viewBox="0 0 148 131" fill="none" xmlns="http://www.w3.org/2000/svg">
<path d="M0 13.7895C0 10.1323 1.55928 6.62487 4.33482 4.03884C7.11036 1.45281 10.8748 0 14.8 0H133.2C137.125 0 140.89 1.45281 143.665 4.03884C146.441 6.62487 148 10.1323 148 13.7895V89.6316C148 93.2888 146.441 96.7962 143.665 99.3822C140.89 101.968 137.125 103.421 133.2 103.421H81.4V117.211H103.6C105.563 117.211 107.445 117.937 108.833 119.23C110.22 120.523 111 122.277 111 124.105C111 125.934 110.22 127.688 108.833 128.981C107.445 130.274 105.563 131 103.6 131H44.4C42.4374 131 40.5552 130.274 39.1674 128.981C37.7796 127.688 37 125.934 37 124.105C37 122.277 37.7796 120.523 39.1674 119.23C40.5552 117.937 42.4374 117.211 44.4 117.211H66.6V103.421H14.8C10.8748 103.421 7.11036 101.968 4.33482 99.3822C1.55928 96.7962 0 93.2888 0 89.6316V13.7895ZM133.2 89.6316V13.7895H14.8V89.6316H133.2Z" fill="#6C63FF"/>
</svg>
